<svg width="62" height="32" viewBox="0 0 62 32" fill="none" xmlns="http://www.w3.org/2000/svg">
<g clip-path="url(#clip0_2_29)">
<path d="M19.375 10.8333H19.3871" stroke="#2C3E50" stroke-width="1.9375" stroke-linecap="round" stroke-linejoin="round"/>
<path d="M21.9583 5.66675H9.04167C6.90157 5.66675 5.16667 7.40164 5.16667 9.54175V22.4584C5.16667 24.5985 6.90157 26.3334 9.04167 26.3334H21.9583C24.0984 26.3334 25.8333 24.5985 25.8333 22.4584V9.54175C25.8333 7.40164 24.0984 5.66675 21.9583 5.66675Z" stroke="#2C3E50" stroke-width="1.9375" stroke-linecap="round" stroke-linejoin="round"/>
<path d="M5.16667 19.8751L10.3333 14.7084C10.9224 14.1416 11.5906 13.8431 12.2708 13.8431C12.951 13.8431 13.6193 14.1416 14.2083 14.7084L20.6667 21.1667" stroke="#2C3E50" stroke-width="1.9375" stroke-linecap="round" stroke-linejoin="round"/>
<path d="M18.0833 18.5833L19.375 17.2916C19.9641 16.7248 20.6323 16.4264 21.3125 16.4264C21.9927 16.4264 22.6609 16.7248 23.25 17.2916L25.8333 19.875" stroke="#2C3E50" stroke-width="1.9375" stroke-linecap="round" stroke-linejoin="round"/>
</g>
<path d="M35.72 12V10.336H39.048V22H37.208V12H35.72ZM41.3298 19.568V18.192L46.7058 10.48H48.9138V17.984H50.4018V19.568H48.9138V22H47.1218V19.568H41.3298ZM47.2018 12.336L43.4258 17.984H47.2018V12.336ZM51.6891 19.568V18.192L57.0651 10.48H59.2731V17.984H60.7611V19.568H59.2731V22H57.4811V19.568H51.6891ZM57.5611 12.336L53.7851 17.984H57.5611V12.336Z" fill="#0E0E38"/>
<defs>
<clipPath id="clip0_2_29">
<rect width="31" height="31" fill="white" transform="translate(0 0.5)"/>
</clipPath>
</defs>
</svg>
